<svg width="25" height="21" viewBox="0 0 25 21" fill="none" xmlns="http://www.w3.org/2000/svg">
<path d="M12.0833 0C10.4965 0 8.92526 0.276995 7.45924 0.815168C5.99322 1.35334 4.66117 2.14216 3.53913 3.13657C1.27306 5.14488 0 7.86874 0 10.7089C0 15.4423 3.46792 19.4581 8.265 20.8824C8.86917 20.9681 9.0625 20.6361 9.0625 20.347V18.5371C5.71542 19.1797 5.0025 17.1022 5.0025 17.1022C4.44667 15.8599 3.66125 15.5279 3.66125 15.5279C2.56167 14.864 3.74583 14.8854 3.74583 14.8854C4.95417 14.9604 5.59458 15.9884 5.59458 15.9884C6.64583 17.6162 8.42208 17.1343 9.11083 16.8773C9.21958 16.1812 9.53375 15.71 9.87208 15.4423C7.18958 15.1745 4.37417 14.2536 4.37417 10.1735C4.37417 8.98479 4.83333 8.03169 5.61875 7.27136C5.49792 7.00364 5.075 5.88991 5.73958 4.4442C5.73958 4.4442 6.75458 4.15506 9.0625 5.53651C10.0171 5.30092 11.0562 5.18312 12.0833 5.18312C13.1104 5.18312 14.1496 5.30092 15.1042 5.53651C17.4121 4.15506 18.4271 4.4442 18.4271 4.4442C19.0917 5.88991 18.6687 7.00364 18.5479 7.27136C19.3333 8.03169 19.7925 8.98479 19.7925 10.1735C19.7925 14.2643 16.965 15.1638 14.2704 15.4316C14.7054 15.7635 15.1042 16.4168 15.1042 17.4127V20.347C15.1042 20.6361 15.2975 20.9788 15.9137 20.8824C20.7108 19.4474 24.1667 15.4423 24.1667 10.7089C24.1667 9.30261 23.8541 7.91006 23.2469 6.6108C22.6396 5.31153 21.7496 4.13099 20.6275 3.13657C19.5055 2.14216 18.1734 1.35334 16.7074 0.815168C15.2414 0.276995 13.6701 0 12.0833 0Z" fill="#1D1D1D"/>
</svg>
