<svg width="827" height="20" viewBox="0 0 827 20" fill="none" xmlns="http://www.w3.org/2000/svg">
<path d="M-534.176 17.4357C-522.83 17.4883 -508.783 17.1511 -497.557 17.3586C-497.4 17.3615 -497.243 17.3644 -497.085 17.3673C-492.497 17.4521 -487.823 17.5746 -482.167 17.7226C-481.446 17.7415 -480.708 17.7612 -479.954 17.7809C-473.249 17.9557 -465.013 18.1653 -453.79 18.3983C-416.105 19.1806 -386.392 18.6607 -377.15 18.4988C-358.613 18.174 -338.839 18.1671 -311.858 18.158C-309.391 18.1572 -306.863 18.1577 -304.27 18.1566C-302.17 18.1557 -300.431 18.4186 -300.383 18.7449C-300.336 19.0712 -301.999 19.3366 -304.1 19.3375C-306.638 19.3386 -309.113 19.3396 -311.523 19.3405C-311.534 19.3405 -311.545 19.3405 -311.556 19.3405C-338.707 19.3498 -358.051 19.3568 -376.15 19.6739C-385.594 19.8394 -416.037 20.3707 -454.652 19.5691C-465.995 19.3336 -474.323 19.1232 -481.069 18.9473C-481.807 18.928 -482.527 18.9088 -483.226 18.8905C-483.243 18.89 -483.259 18.8895 -483.276 18.889C-488.969 18.7401 -493.447 18.6222 -497.837 18.541C-497.931 18.5395 -498.024 18.5381 -498.118 18.5366C-509.469 18.3268 -523.248 18.6677 -534.253 18.6167C-536.353 18.6068 -538.041 18.3342 -538.019 18.008C-537.997 17.6821 -536.275 17.4262 -534.176 17.4357ZM231.973 13.5579C242.928 13.1252 257.502 13.173 270.37 13.3656C283.328 13.5596 295.056 13.9086 300.575 14.1229C305.97 14.3323 311.965 14.4001 319.118 14.4418C320.758 14.4513 322.459 14.4595 324.219 14.468C330.031 14.4961 336.497 14.5276 343.596 14.6209C369.671 14.9637 386.67 14.9782 398.811 14.9471C401.308 14.9407 403.632 14.9319 405.807 14.9238C405.81 14.9238 405.814 14.9238 405.818 14.9238C414.026 14.8932 420.15 14.8708 425.782 15.0053C435.807 15.2448 443.993 15.4571 453.873 15.8718C467.498 16.4436 486.906 16.3757 499.535 15.9824C500.228 15.9609 500.937 15.9379 501.654 15.9155C510.809 15.6286 522.082 15.2757 538.986 15.0126C553.03 14.794 565.27 14.8112 576.104 14.8728C579.208 14.8905 582.171 14.9124 585.016 14.9325C592.194 14.9833 598.62 15.029 604.673 15.0024C642.207 14.8373 663.854 15.0509 677.459 15.3723C687.922 15.6195 693.767 15.9376 697.983 16.1674C699.258 16.2368 700.383 16.2991 701.443 16.348C710.891 16.7833 719.565 16.979 730 17.2144C732.316 17.2666 734.725 17.3212 737.243 17.3804C745.662 17.5784 751.936 17.5442 756.856 17.4605C759.008 17.4239 760.901 17.3788 762.687 17.3353C762.72 17.3343 762.753 17.3333 762.786 17.3323C763.035 17.3263 763.282 17.3208 763.527 17.3149C763.712 17.3104 763.897 17.3047 764.082 17.3003C764.154 17.2944 764.22 17.2906 764.268 17.2872C764.307 17.2845 764.337 17.2826 764.356 17.2814C764.36 17.2809 764.363 17.2804 764.367 17.2799C764.718 17.2573 765.019 17.2483 765.081 17.2464C765.189 17.2431 765.285 17.2416 765.334 17.2406C765.592 17.2352 765.925 17.232 766.146 17.2304C766.715 17.2262 767.703 17.2212 769.232 17.2159C770.563 17.1988 771.84 17.1698 773.438 17.1328C773.539 17.1304 773.639 17.128 773.74 17.1256C775.299 17.0895 777.123 17.0481 779.412 17.0076C781.495 16.9707 783.41 17.2033 783.689 17.5275C783.968 17.8517 782.505 18.1443 780.422 18.1813C778.266 18.2195 776.557 18.2588 774.997 18.2949C774.898 18.2973 774.8 18.2998 774.701 18.3022C773.075 18.3398 771.534 18.3749 769.875 18.3954C769.319 18.4022 768.746 18.4075 768.211 18.4114C767.247 18.426 766.151 18.4511 764.839 18.4827C764.576 18.4891 764.305 18.4949 764.027 18.5017C762.244 18.5452 760.169 18.5958 757.828 18.6357C752.348 18.7288 745.406 18.7638 736.243 18.5483C733.84 18.4918 731.512 18.4393 729.237 18.3881C718.761 18.1522 709.44 17.943 699.411 17.4809C698.035 17.4175 696.715 17.345 695.304 17.2683C691.121 17.0408 686.127 16.7687 676.454 16.5402C663.494 16.2341 642.363 16.0193 605.04 16.1834C598.688 16.2113 591.834 16.1623 584.532 16.1106C581.745 16.0909 578.888 16.0718 575.972 16.0553C565.307 15.9946 553.452 15.9782 539.892 16.1892C523.366 16.4464 512.4 16.789 503.285 17.0746C502.97 17.0848 502.655 17.095 502.34 17.1052C501.95 17.1174 501.561 17.1296 501.176 17.1416C487.719 17.5608 467.069 17.6438 452.017 17.012C442.572 16.6155 434.736 16.4114 424.766 16.1732C419.863 16.0561 414.624 16.0754 406.581 16.1048C404.323 16.113 401.84 16.121 399.086 16.1281C386.728 16.1597 369.468 16.1456 343.102 15.799C336.227 15.7086 330.042 15.6784 324.263 15.6504C322.468 15.6417 320.706 15.6328 318.98 15.6228C311.793 15.5809 305.104 15.5125 298.868 15.2704C293.742 15.0713 282.391 14.731 269.788 14.5423C257.094 14.3522 243.618 14.3237 233.988 14.7039C232.987 14.7434 231.977 14.7825 230.968 14.8218C222.281 15.1609 213.424 15.5064 206.293 16.0815C174.329 19.6951 116.437 18.319 78.247 18.1012C77.7453 18.0983 77.2441 18.0954 76.7425 18.0925C32.6625 17.8414 0.627319 17.8733 -10.2923 17.8842C-10.8017 17.8848 -11.2649 17.8853 -11.6815 17.8857C-12.0534 17.8861 -12.3897 17.887 -12.6863 17.8872C-17.1345 17.8902 -21.0703 17.9321 -25.1943 17.976C-25.4194 17.9784 -25.6446 17.9808 -25.8697 17.9833C-30.2273 18.0295 -34.8007 18.0746 -40.2062 18.0706C-60.3068 18.0559 -76.6922 18.1097 -90.8698 18.1668C-93.4948 18.1773 -96.0469 18.1869 -98.5351 18.1973C-98.5424 18.1973 -98.5497 18.1973 -98.557 18.1973C-109.476 18.2432 -119.163 18.2844 -128.356 18.2847C-145.118 18.2853 -156.441 18.36 -165.248 18.4405C-168.01 18.4658 -170.555 18.4916 -172.957 18.5162C-178.151 18.5696 -182.687 18.6164 -187.365 18.6327C-196.164 18.6634 -204.262 18.7446 -212.239 18.8235C-212.95 18.8305 -213.66 18.8369 -214.369 18.8439C-223.016 18.9289 -231.579 19.0078 -240.632 19.0099C-242.733 19.0104 -244.475 18.7451 -244.519 18.4187C-244.561 18.0926 -242.891 17.8279 -240.791 17.8275C-231.998 17.8254 -223.645 17.7494 -215.001 17.6644C-214.287 17.6573 -213.571 17.6496 -212.854 17.6425C-204.897 17.5638 -196.651 17.483 -187.689 17.4518C-183.179 17.436 -178.894 17.392 -173.803 17.3396C-171.374 17.3146 -168.758 17.2876 -165.847 17.261C-156.906 17.1793 -145.434 17.1029 -128.509 17.1023C-119.428 17.102 -109.865 17.0621 -98.9523 17.0164C-96.4485 17.0058 -93.8725 16.995 -91.2158 16.9843C-77.0025 16.9271 -60.5326 16.8734 -40.3215 16.8882C-35.2142 16.8919 -30.8786 16.8497 -26.5396 16.8037C-26.2961 16.8013 -26.0529 16.7989 -25.8093 16.7965C-21.7215 16.753 -17.5665 16.7079 -12.8674 16.7047C-12.2397 16.7043 -11.438 16.7042 -10.4734 16.7033C0.46228 16.6923 32.6276 16.6595 76.8688 16.9115C77.0061 16.9125 77.1434 16.9134 77.2806 16.9144C106.925 17.0833 123.649 17.1787 136.241 16.8867C146.179 16.6564 153.607 16.5974 159.703 16.5693C160.865 16.5639 161.965 16.5588 163.014 16.5547C167.545 16.5371 171.126 16.523 174.704 16.4411C185.529 16.1934 193.292 15.7875 202.685 15.0301C210.648 14.3881 220.402 14.0082 228.948 13.6758C228.96 13.6753 228.973 13.6748 228.986 13.6744C230 13.6349 230.998 13.5964 231.973 13.5579ZM809.568 16.2227C811.667 16.2325 813.353 16.5041 813.334 16.83C813.313 17.1561 811.592 17.4133 809.491 17.4037C804.485 17.3804 799.479 17.3571 794.473 17.3338C792.374 17.324 790.687 17.0524 790.707 16.7266C790.728 16.4004 792.45 16.1433 794.55 16.1528C799.556 16.1761 804.562 16.1994 809.568 16.2227ZM223.21 7.67916C225.259 7.61304 227.301 7.81971 227.767 8.13932C228.23 8.45867 226.943 8.77077 224.895 8.83684C223.812 8.87179 222.031 8.935 219.635 9.02032C202.378 9.63481 153.102 11.3896 100.864 11.9022C96.4641 11.9453 92.5228 11.988 88.7674 12.0288C72.7049 12.2037 59.81 13.043 29.0878 13.0089C-100.093 12.8654 -229.172 11.3654 -358.146 12.3944C-395.396 12.6915 -432.528 12.736 -469.807 12.7162C-500.878 12.6997 -557.832 12.0938 -571.233 12.0318C-573.335 12.022 -575.021 11.7493 -575 11.4231C-574.977 11.097 -573.257 10.8411 -571.156 10.8508C-557.85 10.9124 -501.085 11.5173 -470.131 11.5337C-432.924 11.5535 -395.867 11.51 -358.689 11.2134C-229.566 10.1832 -100.072 10.2513 29.258 10.395C59.6816 10.4288 72.0654 11.0249 88.0701 10.8508C91.8342 10.8098 95.7975 10.7662 100.238 10.7226C151.744 10.2173 200.271 8.49101 217.735 7.86992C220.208 7.78201 222.064 7.71612 223.21 7.67916ZM320.93 8.17281C344.388 8.08344 377.736 8.24257 406.877 8.38251C421.089 8.45075 434.301 8.51533 444.879 8.54269C461.267 8.58507 471.585 8.86777 481.816 9.14847C481.925 9.15138 482.036 9.15429 482.145 9.15721C492.369 9.43767 502.602 9.71371 519.247 9.75716C536.028 9.80096 559.249 9.60879 582.671 9.41496C582.689 9.41496 582.707 9.41496 582.726 9.41496C606.023 9.22214 629.655 8.42869 646.732 8.47425C706.242 8.633 742.936 9.44472 761.49 10.0819C793.944 11.1965 830.754 9.94634 863.91 11.3561C867.567 11.6683 861.399 12.5671 854.658 12.3084C854.415 12.3012 854.171 12.2939 853.928 12.2866C851.609 12.2188 849.581 12.1638 846.724 12.1191C842.584 12.0826 839.504 12.0802 836.692 12.0784C829.315 12.0736 778.105 11.859 759.985 11.2367C742.377 10.6321 706.453 11.2479 646.562 11.0881C629.801 11.0434 606.642 10.4021 583.22 10.5959C583.156 10.5964 583.092 10.5969 583.028 10.5974C559.777 10.7898 536.33 10.9841 519.269 10.9396C502.023 10.8946 491.323 10.6049 480.965 10.3207C480.864 10.3178 480.763 10.3149 480.663 10.312C470.526 10.0339 460.684 9.76449 444.901 9.72367C434.091 9.69571 420.724 9.63225 406.422 9.56349C377.404 9.424 344.522 9.26519 321.265 9.3538C319.166 9.36164 317.387 9.10332 317.295 8.77714C317.204 8.45112 318.832 8.18091 320.93 8.17281ZM321.413 0.811691C387.329 -0.49791 453.612 -0.130283 518.61 1.25292C535.574 1.29721 559.249 1.38895 582.891 1.48155C583.158 1.483 583.425 1.48446 583.692 1.48591C607.078 1.57751 630.362 1.66849 647.078 1.71308C706.588 1.87184 743.419 2.08511 761.973 2.72223C779.273 3.31637 784.076 3.3181 791.195 3.32219C791.389 3.32268 791.583 3.32316 791.777 3.32365C791.79 3.32268 791.803 3.3217 791.816 3.32073C792.06 3.30554 792.265 3.29685 792.37 3.29307C792.585 3.28537 792.76 3.28251 792.826 3.28142C792.978 3.27889 793.104 3.27872 793.15 3.2785C793.335 3.27765 793.546 3.27787 793.683 3.2785C794.95 3.28437 798.921 3.32013 802.067 3.36879C805.291 3.41866 807.589 3.4829 810.012 3.55373C810.257 3.56101 810.503 3.56829 810.748 3.57557C812.932 3.63974 815.309 3.70951 818.732 3.78526C820.817 3.83152 822.299 4.13063 822.043 4.45366C821.785 4.77645 819.888 5.0006 817.804 4.9546C814.202 4.8749 811.674 4.80064 809.48 4.73617C809.236 4.72889 808.993 4.7216 808.749 4.71432C806.43 4.64653 804.398 4.59152 801.54 4.54686C797.401 4.51034 794.325 4.50788 791.514 4.50609C784.143 4.50137 778.593 4.49778 760.474 3.87555C742.866 3.27083 706.994 3.05385 647.1 2.89407C630.353 2.84939 607.042 2.75842 583.676 2.6669C583.401 2.66593 583.126 2.66496 582.852 2.66399C559.197 2.57134 535.558 2.47809 518.632 2.4339C452.659 2.26169 388.05 2.85319 321.753 1.99267C309.554 2.03915 298.404 2.05751 288.073 2.07422C257.67 2.12339 234.338 2.16192 212.096 2.8795C207.22 3.03683 194.438 3.1704 175.967 3.33675C170.554 3.3855 164.616 3.43662 158.199 3.49257C142.467 3.62971 123.828 3.79184 102.829 3.99787C98.4297 4.04104 94.4885 4.08369 90.7331 4.12456C74.67 4.29936 61.9911 4.43827 31.2676 4.40415C-6.53448 4.36217 -69.8722 4.0688 -103.746 3.84351C-120.711 3.73068 -130.289 3.62612 -137.064 3.53917C-138.951 3.51495 -140.61 3.4915 -142.132 3.47072C-146.109 3.41645 -149.198 3.37485 -153.245 3.34695C-182.394 3.14606 -202.801 3.28446 -236.233 3.57266C-238.328 3.59063 -240.155 3.34066 -240.313 3.01493C-240.471 2.68915 -238.899 2.40989 -236.805 2.39168C-203.323 2.10305 -182.604 1.96234 -153.059 2.16596C-148.833 2.19509 -145.526 2.24033 -141.479 2.29556C-139.978 2.31605 -138.376 2.33813 -136.586 2.3611C-129.923 2.44661 -120.447 2.55029 -103.57 2.66253C-69.7572 2.88741 -6.5116 3.17986 31.1743 3.22171C61.5975 3.2555 74.0307 3.12063 90.0358 2.94649C93.7988 2.90555 97.7594 2.86189 102.198 2.81834C123.226 2.61202 141.915 2.4488 157.655 2.31158C164.064 2.25571 169.988 2.20432 175.379 2.15577C194.223 1.98607 206.233 1.8566 210.411 1.72182C233.433 0.979124 257.778 0.939501 288.462 0.890327C298.68 0.873953 309.604 0.856676 321.413 0.811691ZM-356.724 3.30908C-354.628 3.29243 -352.809 3.54382 -352.661 3.86972C-352.513 4.19556 -354.09 4.47335 -356.186 4.49007C-367.257 4.57839 -375.216 4.65126 -381.438 4.7085C-392.954 4.81444 -398.52 4.86609 -406.855 4.85703C-428.372 4.83363 -449.149 4.82183 -467.841 4.81189C-498.912 4.79537 -524.234 4.78218 -537.635 4.72015C-539.736 4.71036 -541.423 4.43765 -541.402 4.11145C-541.378 3.78557 -539.658 3.52958 -537.558 3.53917C-524.252 3.60076 -499.12 3.61448 -468.165 3.63091C-449.451 3.64084 -428.606 3.65105 -406.954 3.67459C-398.869 3.68338 -393.615 3.63559 -382.355 3.53188C-376.139 3.47463 -368.091 3.39977 -356.724 3.30908Z" fill="#151414"/>
</svg>
